# xmcd CD database file
#
# Track frame offsets:
#	150
#	13760
#	25944
#	38593
#	50766
#	64596
#	79101
#	93396
#	105683
#	118376
#	132749
#	147871
#	162127
#	176024
#	188121
#	198094
#	210880
#	222910
#	235550
#	247960
#	260971
#	272697
#	285192
#	299416
#
# Disc length: 4137 seconds
#
# Revision: 0
# Processed by: cddbd v1.5.2PL0 Copyright (c) Steve Scherf et al.
# Submitted via: CDex 1.51
#
DISCID=5e102718
DTITLE=Various Artist - Following In The Footsteps of Jimmie Rodgers
DYEAR=1900
DGENRE=Country
TTITLE0=Alan Moore - "T" For Texas
TTITLE1=Alan Moore - Rough And Rowdy Ways
TTITLE2=Alan Moore - Waiting For A Train
TTITLE3=Alan Moore - Daddy And Home
TTITLE4=Pete McWilliam - The Rambling Blues 
TTITLE5=Al Runyon - Away Out On The Mountain
TTITLE6=Al Runyon - The Brake Man's Blues
TTITLE7=Al Runyon - Never No More Blues
TTITLE8=Al Runyon - Blue Yodel No. 4 (California Blues)
TTITLE9=Al Runyon - Frankie And Johnny
TTITLE10=Al Runyon - Blue Yodel No. 6
TTITLE11=Al Runyon - Blue Yodel No.3 (Evening Sun Yodel)
TTITLE12=Al Runyon - Blue Yodel No.2 (My Lovin' Gal)
TTITLE13=Al Runyon - Jimmie's Mean Mama Blues
TTITLE14=Al Runyon - I'm Sorry We Met
TTITLE15=Al Runyon - My Old Pal 
TTITLE16=Alan Moore - Blue Yodeling Blues
TTITLE17=Riley Crabtree - Blue Yodel No. 5
TTITLE18=Riley Crabtree - In The Jailhouse Now
TTITLE19=Riley Crabtree - T. B. Blues
TTITLE20=Riley Crabtree - Blue Yodel No. 8 (Muleskinner Blues)
TTITLE21=Riley Crabtree - Blue Yodel
TTITLE22=Dannie Maness - Traveling Blues
TTITLE23=Dannie Maness - Hobo Bill
EXTD=
EXTT0=
EXTT1=
EXTT2=
EXTT3=
EXTT4=
EXTT5=
EXTT6=
EXTT7=
EXTT8=
EXTT9=
EXTT10=
EXTT11=
EXTT12=
EXTT13=
EXTT14=
EXTT15=
EXTT16=
EXTT17=
EXTT18=
EXTT19=
EXTT20=
EXTT21=
EXTT22=
EXTT23=
PLAYORDER=
